<svg id="svg" version="1.1" width="400" height="148.9010989010989" viewBox="0 0 400 148.9010989010989" xmlns="http://www.w3.org/2000/svg" xmlns:xlink="http://www.w3.org/1999/xlink" ><g id="svgg"><path id="path0" d="M238.208 64.292 L 238.250 102.417 245.625 102.460 L 253.000 102.503 253.011 91.127 C 253.017 84.168,253.080 79.896,253.172 80.125 C 253.255 80.331,253.400 80.500,253.495 80.500 C 253.589 80.500,253.667 80.612,253.667 80.750 C 253.667 80.887,253.779 81.000,253.917 81.000 C 254.054 81.000,254.167 81.112,254.167 81.250 C 254.167 81.387,254.279 81.500,254.417 81.500 C 254.554 81.500,254.667 81.632,254.667 81.793 C 254.667 81.955,254.817 82.180,255.000 82.295 C 255.183 82.409,255.333 82.652,255.333 82.835 C 255.333 83.019,255.445 83.167,255.583 83.167 C 255.721 83.167,255.833 83.282,255.833 83.422 C 255.833 83.562,255.946 83.720,256.083 83.773 C 256.221 83.826,256.333 83.973,256.333 84.101 C 256.333 84.229,256.446 84.333,256.583 84.333 C 256.721 84.333,256.833 84.445,256.833 84.582 C 256.833 84.719,256.983 84.924,257.167 85.039 C 257.350 85.153,257.500 85.371,257.500 85.522 C 257.500 85.674,257.612 85.841,257.750 85.894 C 257.887 85.946,258.000 86.104,258.000 86.245 C 258.000 86.385,258.112 86.500,258.250 86.500 C 258.387 86.500,258.500 86.612,258.500 86.750 C 258.500 86.889,258.648 87.000,258.833 87.000 C 259.079 87.000,259.167 87.111,259.167 87.422 C 259.167 87.654,259.279 87.887,259.417 87.940 C 259.554 87.992,259.667 88.178,259.667 88.351 C 259.667 88.525,259.779 88.667,259.917 88.667 C 260.054 88.667,260.167 88.779,260.167 88.917 C 260.167 89.054,260.279 89.167,260.417 89.167 C 260.554 89.167,260.667 89.286,260.667 89.432 C 260.667 89.578,260.817 89.737,261.000 89.785 C 261.183 89.833,261.333 90.008,261.333 90.174 C 261.333 90.340,261.446 90.589,261.583 90.726 C 261.721 90.864,261.833 91.015,261.833 91.063 C 261.833 91.238,262.628 92.000,262.811 92.000 C 262.915 92.000,263.000 92.112,263.000 92.250 C 263.000 92.388,263.112 92.500,263.250 92.500 C 263.404 92.500,263.500 92.656,263.500 92.908 C 263.500 93.133,263.599 93.377,263.721 93.450 C 263.842 93.523,263.990 93.715,264.049 93.875 C 264.108 94.035,264.271 94.167,264.411 94.167 C 264.552 94.167,264.667 94.279,264.667 94.417 C 264.667 94.554,264.779 94.667,264.917 94.667 C 265.056 94.667,265.167 94.815,265.167 95.000 C 265.167 95.185,265.278 95.333,265.417 95.333 C 265.555 95.333,265.667 95.481,265.667 95.664 C 265.667 95.845,265.929 96.264,266.250 96.595 C 266.571 96.925,266.833 97.264,266.833 97.348 C 266.833 97.431,266.946 97.500,267.083 97.500 C 267.221 97.500,267.333 97.612,267.333 97.750 C 267.333 97.888,267.440 98.000,267.570 98.000 C 267.700 98.000,267.857 98.230,267.919 98.511 C 267.981 98.792,268.137 99.063,268.266 99.112 C 268.395 99.162,268.500 99.307,268.500 99.434 C 268.500 99.562,268.612 99.667,268.750 99.667 C 268.887 99.667,269.000 99.779,269.000 99.917 C 269.000 100.054,269.112 100.167,269.250 100.167 C 269.387 100.167,269.500 100.299,269.500 100.460 C 269.500 100.621,269.650 100.847,269.833 100.961 C 270.017 101.076,270.167 101.319,270.167 101.501 C 270.167 101.684,270.270 101.833,270.397 101.833 C 270.524 101.833,270.667 101.983,270.715 102.167 C 270.801 102.495,270.942 102.500,280.036 102.500 C 289.936 102.500,290.239 102.476,289.703 101.718 C 289.586 101.552,289.446 101.285,289.392 101.125 C 289.339 100.965,289.153 100.833,288.981 100.833 C 288.808 100.833,288.667 100.721,288.667 100.583 C 288.667 100.446,288.554 100.333,288.417 100.333 C 288.279 100.333,288.167 100.189,288.167 100.012 C 288.167 99.835,288.069 99.591,287.949 99.470 C 287.829 99.349,287.682 99.119,287.621 98.958 C 287.560 98.798,287.433 98.667,287.339 98.667 C 287.244 98.667,287.167 98.547,287.167 98.401 C 287.167 98.255,287.017 98.096,286.833 98.048 C 286.650 98.000,286.500 97.857,286.500 97.731 C 286.500 97.604,286.387 97.500,286.250 97.500 C 286.094 97.500,286.000 97.342,286.000 97.078 C 286.000 96.846,285.887 96.613,285.750 96.560 C 285.612 96.508,285.500 96.353,285.500 96.217 C 285.500 96.080,285.350 95.930,285.167 95.882 C 284.983 95.834,284.833 95.691,284.833 95.564 C 284.833 95.437,284.740 95.332,284.625 95.330 C 284.510 95.328,284.246 94.953,284.038 94.497 C 283.830 94.040,283.549 93.667,283.413 93.667 C 283.278 93.667,283.167 93.554,283.167 93.417 C 283.167 93.279,283.054 93.167,282.917 93.167 C 282.778 93.167,282.667 93.019,282.667 92.833 C 282.667 92.648,282.556 92.500,282.417 92.500 C 282.279 92.500,282.167 92.362,282.167 92.193 C 282.167 91.831,281.496 91.000,281.203 91.000 C 281.091 91.000,281.000 90.850,281.000 90.667 C 281.000 90.481,280.889 90.333,280.750 90.333 C 280.612 90.333,280.500 90.255,280.500 90.160 C 280.500 89.940,279.818 88.960,279.542 88.783 C 279.427 88.710,279.333 88.541,279.333 88.408 C 279.333 88.275,279.221 88.167,279.083 88.167 C 278.946 88.167,278.833 88.054,278.833 87.917 C 278.833 87.779,278.721 87.667,278.583 87.667 C 278.428 87.667,278.333 87.509,278.333 87.251 C 278.333 87.017,278.188 86.746,278.000 86.628 C 277.817 86.513,277.667 86.325,277.667 86.210 C 277.667 86.094,277.554 86.000,277.417 86.000 C 277.279 86.000,277.167 85.888,277.167 85.750 C 277.167 85.612,277.054 85.500,276.917 85.500 C 276.779 85.500,276.667 85.393,276.667 85.262 C 276.667 84.911,275.950 83.849,275.708 83.840 C 275.594 83.837,275.500 83.718,275.500 83.578 C 275.500 83.438,275.387 83.280,275.250 83.227 C 275.112 83.174,275.000 83.027,275.000 82.899 C 275.000 82.771,274.893 82.667,274.763 82.667 C 274.633 82.667,274.477 82.442,274.417 82.167 C 274.356 81.892,274.200 81.667,274.070 81.667 C 273.940 81.667,273.833 81.517,273.833 81.333 C 273.833 81.148,273.722 81.000,273.583 81.000 C 273.446 81.000,273.333 80.887,273.333 80.750 C 273.333 80.612,273.239 80.500,273.123 80.500 C 272.914 80.500,272.696 80.170,272.327 79.292 C 272.221 79.040,272.029 78.833,271.900 78.833 C 271.772 78.833,271.667 78.721,271.667 78.583 C 271.667 78.446,271.554 78.333,271.417 78.333 C 271.278 78.333,271.167 78.185,271.167 78.000 C 271.167 77.815,271.056 77.667,270.917 77.667 C 270.779 77.667,270.667 77.554,270.667 77.417 C 270.667 77.279,270.517 77.017,270.333 76.833 C 270.150 76.650,270.000 76.425,270.000 76.333 C 270.000 76.242,269.887 76.167,269.750 76.167 C 269.612 76.167,269.500 76.052,269.500 75.911 C 269.500 75.771,269.387 75.613,269.250 75.560 C 269.112 75.508,269.000 75.360,269.000 75.234 C 269.000 75.107,268.850 74.909,268.667 74.795 C 268.483 74.680,268.333 74.463,268.333 74.311 C 268.333 74.160,268.221 73.992,268.083 73.940 C 267.946 73.887,267.833 73.729,267.833 73.589 C 267.833 73.448,267.721 73.333,267.583 73.333 C 267.446 73.333,267.333 73.221,267.333 73.083 C 267.333 72.946,267.227 72.833,267.097 72.833 C 266.966 72.833,266.812 72.615,266.753 72.347 C 266.694 72.080,266.538 71.820,266.406 71.769 C 266.275 71.719,266.167 71.562,266.167 71.422 C 266.167 71.282,266.054 71.167,265.917 71.167 C 265.779 71.167,265.667 71.054,265.667 70.917 C 265.667 70.779,265.554 70.667,265.417 70.667 C 265.279 70.667,265.167 70.568,265.167 70.448 C 265.167 70.328,265.017 70.069,264.833 69.872 C 264.650 69.675,264.500 69.407,264.500 69.276 C 264.500 69.146,264.650 69.000,264.833 68.952 C 265.017 68.904,265.167 68.745,265.167 68.599 C 265.167 68.453,265.279 68.333,265.417 68.333 C 265.554 68.333,265.667 68.221,265.667 68.083 C 265.667 67.946,265.779 67.833,265.917 67.833 C 266.054 67.833,266.167 67.738,266.167 67.620 C 266.167 67.503,266.373 67.220,266.625 66.991 C 267.232 66.439,267.833 65.576,267.833 65.257 C 267.833 65.116,267.946 65.000,268.083 65.000 C 268.221 65.000,268.333 64.887,268.333 64.750 C 268.333 64.611,268.481 64.500,268.667 64.500 C 268.852 64.500,269.000 64.389,269.000 64.250 C 269.000 64.112,269.112 64.000,269.250 64.000 C 269.387 64.000,269.500 63.896,269.500 63.768 C 269.500 63.640,269.612 63.492,269.750 63.440 C 269.887 63.387,270.000 63.229,270.000 63.089 C 270.000 62.948,270.079 62.833,270.175 62.833 C 270.403 62.833,271.155 61.977,271.161 61.708 C 271.164 61.594,271.240 61.500,271.330 61.500 C 271.420 61.500,271.541 61.313,271.598 61.083 C 271.664 60.823,271.821 60.667,272.018 60.667 C 272.191 60.667,272.333 60.554,272.333 60.417 C 272.333 60.279,272.446 60.167,272.583 60.167 C 272.721 60.167,272.833 60.062,272.833 59.934 C 272.833 59.807,272.946 59.659,273.083 59.606 C 273.221 59.554,273.333 59.396,273.333 59.255 C 273.333 59.115,273.446 59.000,273.583 59.000 C 273.721 59.000,273.833 58.887,273.833 58.750 C 273.833 58.612,273.946 58.500,274.083 58.500 C 274.221 58.500,274.333 58.391,274.333 58.258 C 274.333 58.125,274.451 57.951,274.596 57.870 C 274.861 57.721,275.241 57.157,275.433 56.625 C 275.491 56.465,275.650 56.333,275.785 56.333 C 275.920 56.333,276.070 56.183,276.118 56.000 C 276.166 55.817,276.309 55.667,276.436 55.667 C 276.563 55.667,276.667 55.554,276.667 55.417 C 276.667 55.279,276.779 55.167,276.917 55.167 C 277.054 55.167,277.167 55.054,277.167 54.917 C 277.167 54.779,277.279 54.667,277.417 54.667 C 277.554 54.667,277.667 54.572,277.667 54.457 C 277.667 54.342,277.929 54.029,278.250 53.762 C 278.571 53.494,278.833 53.185,278.833 53.075 C 278.833 52.964,278.946 52.781,279.083 52.667 C 279.221 52.553,279.333 52.318,279.333 52.146 C 279.333 51.944,279.452 51.833,279.667 51.833 C 279.852 51.833,280.000 51.722,280.000 51.583 C 280.000 51.446,280.112 51.333,280.250 51.333 C 280.387 51.333,280.500 51.221,280.500 51.083 C 280.500 50.946,280.612 50.833,280.750 50.833 C 280.887 50.833,281.000 50.761,281.000 50.672 C 281.000 50.583,281.363 50.151,281.806 49.713 C 282.250 49.275,282.756 48.600,282.931 48.213 C 283.127 47.780,283.362 47.507,283.542 47.504 C 283.702 47.502,283.833 47.387,283.833 47.250 C 283.833 47.112,283.946 47.000,284.083 47.000 C 284.222 47.000,284.333 46.852,284.333 46.667 C 284.333 46.481,284.444 46.333,284.583 46.333 C 284.769 46.333,284.833 46.139,284.833 45.583 L 284.833 44.833 275.583 44.833 C 267.819 44.833,266.333 44.870,266.333 45.064 C 266.333 45.191,266.183 45.334,266.000 45.382 C 265.817 45.430,265.667 45.588,265.667 45.734 C 265.667 45.880,265.554 46.000,265.417 46.000 C 265.278 46.000,265.167 46.148,265.167 46.333 C 265.167 46.517,265.093 46.667,265.003 46.667 C 264.913 46.667,264.793 46.854,264.735 47.083 C 264.670 47.344,264.513 47.500,264.315 47.500 C 264.111 47.500,264.000 47.617,264.000 47.833 C 264.000 48.019,263.889 48.167,263.750 48.167 C 263.612 48.167,263.500 48.279,263.500 48.417 C 263.500 48.554,263.387 48.667,263.250 48.667 C 263.112 48.667,263.000 48.779,263.000 48.917 C 263.000 49.054,262.893 49.167,262.761 49.167 C 262.630 49.167,262.475 49.317,262.417 49.500 C 262.358 49.683,262.245 49.833,262.165 49.833 C 262.021 49.833,261.608 50.482,261.405 51.026 C 261.349 51.178,261.159 51.340,260.985 51.386 C 260.810 51.431,260.667 51.588,260.667 51.734 C 260.667 51.880,260.554 52.000,260.417 52.000 C 260.279 52.000,260.167 52.112,260.167 52.250 C 260.167 52.387,260.054 52.500,259.917 52.500 C 259.779 52.500,259.667 52.612,259.667 52.750 C 259.667 52.887,259.554 53.000,259.417 53.000 C 259.278 53.000,259.167 53.148,259.167 53.333 C 259.167 53.519,259.056 53.667,258.917 53.667 C 258.779 53.667,258.667 53.768,258.667 53.891 C 258.667 54.014,258.517 54.251,258.333 54.417 C 258.150 54.583,258.000 54.819,258.000 54.942 C 258.000 55.066,257.887 55.167,257.750 55.167 C 257.611 55.167,257.500 55.315,257.500 55.500 C 257.500 55.722,257.389 55.833,257.167 55.833 C 256.981 55.833,256.833 55.944,256.833 56.083 C 256.833 56.221,256.721 56.333,256.583 56.333 C 256.446 56.333,256.333 56.438,256.333 56.566 C 256.333 56.693,256.221 56.841,256.083 56.894 C 255.946 56.946,255.833 57.104,255.833 57.245 C 255.833 57.385,255.721 57.500,255.583 57.500 C 255.446 57.500,255.333 57.632,255.333 57.793 C 255.333 57.955,255.183 58.180,255.000 58.295 C 254.817 58.409,254.667 58.615,254.667 58.751 C 254.667 58.888,254.554 59.000,254.417 59.000 C 254.278 59.000,254.167 59.148,254.167 59.333 C 254.167 59.519,254.056 59.667,253.917 59.667 C 253.779 59.667,253.667 59.770,253.667 59.897 C 253.667 60.024,253.517 60.167,253.333 60.215 C 253.002 60.302,253.000 60.220,253.000 43.234 L 253.000 26.167 245.583 26.167 L 238.166 26.167 238.208 64.292 M294.333 56.321 C 294.333 82.903,294.363 86.506,294.583 86.726 C 294.766 86.909,294.833 87.356,294.833 88.393 C 294.833 89.430,294.900 89.877,295.083 90.060 C 295.238 90.214,295.333 90.623,295.333 91.134 C 295.333 91.664,295.423 92.033,295.583 92.167 C 295.721 92.281,295.833 92.627,295.833 92.936 C 295.833 93.317,295.940 93.564,296.167 93.705 C 296.405 93.854,296.500 94.094,296.500 94.545 C 296.500 94.953,296.589 95.211,296.750 95.273 C 296.893 95.328,297.000 95.576,297.000 95.851 C 297.000 96.169,297.085 96.333,297.250 96.333 C 297.387 96.333,297.500 96.446,297.500 96.583 C 297.500 96.721,297.650 96.983,297.833 97.167 C 298.017 97.350,298.167 97.612,298.167 97.750 C 298.167 97.888,298.279 98.000,298.417 98.000 C 298.554 98.000,298.667 98.112,298.667 98.250 C 298.667 98.388,298.779 98.500,298.917 98.500 C 299.056 98.500,299.167 98.648,299.167 98.833 C 299.167 99.041,299.278 99.167,299.460 99.167 C 299.622 99.167,299.828 99.335,299.919 99.542 C 300.009 99.748,300.252 99.991,300.458 100.081 C 300.665 100.172,300.833 100.311,300.833 100.391 C 300.833 100.622,301.561 101.327,301.804 101.330 C 301.925 101.332,302.136 101.446,302.274 101.583 C 302.411 101.721,302.668 101.833,302.845 101.833 C 303.022 101.833,303.167 101.937,303.167 102.064 C 303.167 102.305,303.655 102.494,304.292 102.498 C 304.513 102.499,304.667 102.603,304.667 102.750 C 304.667 102.938,304.868 103.000,305.482 103.000 C 306.053 103.000,306.326 103.075,306.394 103.250 C 306.538 103.626,316.688 103.626,317.000 103.250 C 317.133 103.090,317.502 103.000,318.026 103.000 C 318.599 103.000,318.872 102.925,318.940 102.750 C 319.002 102.587,319.261 102.500,319.683 102.500 C 320.150 102.500,320.389 102.407,320.539 102.167 C 320.665 101.964,320.927 101.833,321.207 101.833 C 321.504 101.833,321.667 101.745,321.667 101.583 C 321.667 101.409,321.843 101.333,322.250 101.333 C 322.657 101.333,322.833 101.258,322.833 101.083 C 322.833 100.925,322.992 100.833,323.266 100.833 C 323.558 100.833,323.726 100.725,323.785 100.500 C 323.833 100.317,324.009 100.167,324.176 100.167 C 324.741 100.167,324.684 98.169,324.108 97.747 C 323.954 97.635,323.833 97.317,323.833 97.023 C 323.833 96.669,323.752 96.500,323.583 96.500 C 323.416 96.500,323.333 96.333,323.333 95.995 C 323.333 95.699,323.229 95.450,323.083 95.394 C 322.940 95.339,322.833 95.090,322.833 94.810 C 322.833 94.531,322.727 94.282,322.583 94.227 C 322.446 94.174,322.333 93.945,322.333 93.717 C 322.333 93.442,322.221 93.273,322.000 93.215 C 321.751 93.150,321.667 92.988,321.667 92.576 C 321.667 92.272,321.554 91.911,321.417 91.774 C 321.279 91.636,321.167 91.340,321.167 91.116 C 321.167 90.891,321.063 90.622,320.937 90.517 C 320.810 90.412,320.662 90.103,320.608 89.830 C 320.550 89.539,320.403 89.333,320.254 89.333 C 320.075 89.333,320.000 89.162,320.000 88.750 C 320.000 88.343,319.925 88.167,319.750 88.167 C 319.612 88.167,319.500 88.054,319.500 87.917 C 319.500 87.750,319.333 87.667,319.000 87.667 C 318.667 87.667,318.500 87.750,318.500 87.917 C 318.500 88.091,318.324 88.167,317.917 88.167 C 317.509 88.167,317.333 88.242,317.333 88.417 C 317.333 88.591,317.157 88.667,316.750 88.667 C 316.389 88.667,316.040 88.794,315.833 89.000 C 315.414 89.419,313.550 89.491,313.398 89.094 C 313.347 88.962,313.087 88.806,312.819 88.747 C 312.552 88.688,312.333 88.534,312.333 88.403 C 312.333 88.273,312.221 88.167,312.083 88.167 C 311.946 88.167,311.833 88.054,311.833 87.917 C 311.833 87.779,311.721 87.667,311.583 87.667 C 311.444 87.667,311.333 87.519,311.333 87.333 C 311.333 87.150,311.183 86.850,311.000 86.667 C 310.817 86.483,310.667 86.114,310.667 85.845 C 310.667 85.577,310.554 85.245,310.417 85.107 C 310.218 84.909,310.167 84.374,310.167 82.507 C 310.167 80.571,310.123 80.139,309.917 80.060 C 309.696 79.976,309.667 76.822,309.667 53.066 L 309.667 26.167 302.000 26.167 L 294.333 26.167 294.333 56.321 M143.215 44.500 C 143.139 44.789,142.988 44.833,142.064 44.833 C 141.229 44.833,141.000 44.887,141.000 45.083 C 141.000 45.272,140.796 45.333,140.167 45.333 C 139.573 45.333,139.333 45.399,139.333 45.561 C 139.333 45.703,139.068 45.825,138.631 45.884 C 138.244 45.935,137.842 46.095,137.737 46.239 C 137.632 46.383,137.349 46.500,137.107 46.500 C 136.827 46.500,136.667 46.591,136.667 46.750 C 136.667 46.887,136.525 47.000,136.351 47.000 C 136.178 47.000,135.992 47.112,135.940 47.250 C 135.887 47.387,135.654 47.500,135.422 47.500 C 135.111 47.500,135.000 47.588,135.000 47.833 C 135.000 48.073,134.889 48.167,134.604 48.167 C 134.386 48.167,134.114 48.279,134.000 48.417 C 133.886 48.554,133.689 48.667,133.563 48.667 C 133.437 48.667,133.333 48.779,133.333 48.917 C 133.333 49.054,133.218 49.167,133.078 49.167 C 132.938 49.167,132.780 49.279,132.727 49.417 C 132.674 49.554,132.527 49.667,132.399 49.667 C 132.271 49.667,132.167 49.817,132.167 50.000 C 132.167 50.185,132.056 50.333,131.917 50.333 C 131.779 50.333,131.667 50.446,131.667 50.583 C 131.667 50.722,131.519 50.833,131.333 50.833 C 131.150 50.833,131.000 50.938,131.000 51.066 C 131.000 51.193,130.887 51.341,130.750 51.394 C 130.612 51.446,130.500 51.604,130.500 51.745 C 130.500 51.885,130.387 52.000,130.250 52.000 C 130.112 52.000,130.000 52.112,130.000 52.250 C 130.000 52.387,129.887 52.500,129.750 52.500 C 129.612 52.500,129.500 52.604,129.500 52.731 C 129.500 52.857,129.350 53.000,129.167 53.048 C 128.976 53.098,128.833 53.276,128.833 53.464 C 128.833 53.645,128.721 53.886,128.583 54.000 C 128.446 54.114,128.333 54.311,128.333 54.437 C 128.333 54.563,128.221 54.667,128.083 54.667 C 127.928 54.667,127.833 54.824,127.833 55.082 C 127.833 55.317,127.688 55.588,127.500 55.705 C 127.317 55.820,127.167 55.976,127.167 56.052 C 127.167 56.128,127.054 56.303,126.917 56.440 C 126.779 56.578,126.667 56.873,126.667 57.095 C 126.667 57.344,126.570 57.500,126.417 57.500 C 126.252 57.500,126.167 57.665,126.167 57.982 C 126.167 58.257,126.059 58.506,125.917 58.560 C 125.745 58.626,125.667 58.894,125.667 59.411 C 125.667 60.056,125.618 60.167,125.333 60.167 C 125.072 60.167,125.000 60.278,125.000 60.679 C 125.000 60.960,124.888 61.303,124.750 61.440 C 124.589 61.601,124.500 62.013,124.500 62.595 C 124.500 63.288,124.442 63.500,124.250 63.500 C 124.053 63.500,124.000 63.731,124.000 64.583 C 124.000 65.398,123.942 65.667,123.768 65.667 C 123.411 65.667,123.333 66.055,123.333 67.827 C 123.333 69.074,123.274 69.508,123.083 69.667 C 122.877 69.838,122.833 70.426,122.833 73.009 C 122.833 75.572,122.879 76.188,123.083 76.393 C 123.272 76.582,123.333 77.052,123.333 78.321 C 123.333 79.778,123.377 80.044,123.667 80.333 C 123.926 80.593,124.000 80.889,124.000 81.667 C 124.000 82.444,124.056 82.667,124.250 82.667 C 124.441 82.667,124.500 82.877,124.500 83.563 C 124.500 84.156,124.584 84.529,124.750 84.667 C 124.888 84.781,125.000 85.090,125.000 85.354 C 125.000 85.618,125.150 85.983,125.333 86.167 C 125.517 86.350,125.667 86.717,125.667 86.982 C 125.667 87.257,125.774 87.506,125.917 87.560 C 126.063 87.616,126.167 87.866,126.167 88.161 C 126.167 88.499,126.249 88.667,126.417 88.667 C 126.584 88.667,126.667 88.834,126.667 89.172 C 126.667 89.458,126.771 89.717,126.906 89.769 C 127.038 89.820,127.194 90.080,127.253 90.347 C 127.312 90.615,127.466 90.833,127.597 90.833 C 127.727 90.833,127.833 90.983,127.833 91.167 C 127.833 91.352,127.944 91.500,128.083 91.500 C 128.250 91.500,128.333 91.667,128.333 92.000 C 128.333 92.315,128.419 92.500,128.564 92.500 C 128.691 92.500,128.834 92.650,128.882 92.833 C 128.930 93.017,129.088 93.167,129.234 93.167 C 129.407 93.167,129.500 93.314,129.500 93.589 C 129.500 93.821,129.612 94.054,129.750 94.106 C 129.887 94.159,130.000 94.307,130.000 94.434 C 130.000 94.562,130.112 94.667,130.250 94.667 C 130.387 94.667,130.500 94.750,130.500 94.852 C 130.500 95.108,131.204 95.827,131.458 95.830 C 131.573 95.832,131.667 95.946,131.667 96.083 C 131.667 96.221,131.779 96.333,131.917 96.333 C 132.054 96.333,132.167 96.417,132.167 96.518 C 132.167 96.774,132.871 97.494,133.125 97.497 C 133.240 97.499,133.333 97.612,133.333 97.750 C 133.333 97.888,133.437 98.000,133.563 98.000 C 133.689 98.000,133.886 98.112,134.000 98.250 C 134.114 98.388,134.386 98.500,134.604 98.500 C 134.889 98.500,135.000 98.593,135.000 98.833 C 135.000 99.019,135.111 99.167,135.250 99.167 C 135.387 99.167,135.500 99.279,135.500 99.417 C 135.500 99.583,135.667 99.667,136.000 99.667 C 136.333 99.667,136.500 99.750,136.500 99.917 C 136.500 100.054,136.612 100.167,136.750 100.167 C 136.887 100.167,137.150 100.317,137.333 100.500 C 137.517 100.683,137.809 100.833,137.982 100.833 C 138.156 100.833,138.341 100.946,138.394 101.083 C 138.449 101.227,138.697 101.333,138.977 101.333 C 139.256 101.333,139.505 101.440,139.560 101.583 C 139.623 101.747,139.882 101.833,140.309 101.833 C 140.821 101.833,140.980 101.905,141.048 102.167 C 141.119 102.438,141.276 102.500,141.883 102.500 C 142.394 102.500,142.661 102.579,142.727 102.750 C 142.797 102.933,143.086 103.000,143.810 103.000 C 144.534 103.000,144.823 103.067,144.894 103.250 C 144.976 103.466,145.801 103.500,150.911 103.500 C 156.064 103.500,156.833 103.468,156.833 103.250 C 156.833 103.050,157.084 103.000,158.089 103.000 C 159.051 103.000,159.366 102.942,159.440 102.750 C 159.505 102.580,159.771 102.500,160.266 102.500 C 160.817 102.500,161.049 102.418,161.205 102.167 C 161.361 101.918,161.594 101.833,162.123 101.833 C 162.643 101.833,162.833 101.766,162.833 101.583 C 162.833 101.409,163.009 101.333,163.417 101.333 C 163.824 101.333,164.000 101.258,164.000 101.083 C 164.000 100.915,164.168 100.833,164.516 100.833 C 164.891 100.833,165.055 100.743,165.118 100.500 C 165.180 100.264,165.346 100.167,165.686 100.167 C 166.002 100.167,166.167 100.081,166.167 99.917 C 166.167 99.749,166.334 99.667,166.672 99.667 C 166.967 99.667,167.217 99.563,167.273 99.417 C 167.326 99.279,167.473 99.167,167.601 99.167 C 167.729 99.167,167.833 99.017,167.833 98.833 C 167.833 98.577,167.944 98.500,168.316 98.500 C 168.590 98.500,168.839 98.393,168.894 98.250 C 168.946 98.112,169.104 98.000,169.245 98.000 C 169.385 98.000,169.500 97.888,169.500 97.750 C 169.500 97.612,169.612 97.500,169.750 97.500 C 169.887 97.500,170.000 97.388,170.000 97.250 C 170.000 97.112,170.120 97.000,170.266 97.000 C 170.412 97.000,170.570 96.850,170.618 96.667 C 170.666 96.483,170.809 96.333,170.936 96.333 C 171.063 96.333,171.167 96.229,171.167 96.101 C 171.167 95.973,171.279 95.826,171.417 95.773 C 171.608 95.700,171.667 95.386,171.667 94.442 C 171.667 93.548,171.598 93.150,171.417 93.000 C 171.279 92.886,171.167 92.623,171.167 92.417 C 171.167 92.210,171.054 91.947,170.917 91.833 C 170.779 91.719,170.667 91.485,170.667 91.313 C 170.667 91.141,170.517 90.850,170.333 90.667 C 170.150 90.483,170.000 90.154,170.000 89.934 C 170.000 89.715,169.887 89.492,169.750 89.440 C 169.612 89.387,169.500 89.163,169.500 88.942 C 169.500 88.721,169.397 88.455,169.270 88.350 C 169.144 88.245,168.996 87.936,168.941 87.663 C 168.883 87.373,168.736 87.167,168.587 87.167 C 168.416 87.167,168.333 87.003,168.333 86.661 C 168.333 86.366,168.229 86.116,168.083 86.060 C 167.941 86.006,167.833 85.757,167.833 85.482 C 167.833 85.165,167.748 85.000,167.583 85.000 C 167.418 85.000,167.333 84.834,167.333 84.508 C 167.333 84.238,167.239 83.957,167.123 83.883 C 167.007 83.810,166.837 83.526,166.744 83.252 C 166.472 82.444,165.167 82.653,165.167 83.504 C 165.167 83.686,165.055 83.833,164.917 83.833 C 164.779 83.833,164.667 83.946,164.667 84.083 C 164.667 84.222,164.519 84.333,164.333 84.333 C 164.148 84.333,164.000 84.444,164.000 84.583 C 164.000 84.721,163.887 84.833,163.750 84.833 C 163.612 84.833,163.498 84.965,163.496 85.125 C 163.492 85.399,162.485 86.000,162.029 86.000 C 161.921 86.000,161.833 86.112,161.833 86.250 C 161.833 86.388,161.721 86.500,161.583 86.500 C 161.446 86.500,161.333 86.612,161.333 86.750 C 161.333 86.918,161.165 87.000,160.818 87.000 C 160.442 87.000,160.278 87.091,160.215 87.333 C 160.153 87.569,159.988 87.667,159.647 87.667 C 159.331 87.667,159.167 87.752,159.167 87.917 C 159.167 88.090,158.992 88.167,158.595 88.167 C 158.281 88.167,157.924 88.267,157.801 88.389 C 157.678 88.512,157.244 88.657,156.837 88.712 C 156.429 88.766,156.009 88.929,155.904 89.072 C 155.765 89.263,155.421 89.333,154.627 89.333 C 153.865 89.333,153.479 89.408,153.333 89.583 C 153.176 89.773,152.751 89.833,151.583 89.833 C 150.416 89.833,149.990 89.773,149.833 89.583 C 149.689 89.410,149.307 89.333,148.582 89.333 C 147.679 89.333,147.527 89.289,147.452 89.000 C 147.389 88.761,147.224 88.667,146.869 88.667 C 146.597 88.667,146.281 88.554,146.167 88.417 C 146.053 88.279,145.826 88.167,145.664 88.167 C 145.502 88.167,145.326 88.054,145.273 87.917 C 145.217 87.771,144.967 87.667,144.672 87.667 C 144.278 87.667,144.167 87.593,144.167 87.333 C 144.167 87.150,144.089 87.000,143.994 87.000 C 143.900 87.000,143.602 86.775,143.333 86.500 C 143.065 86.225,142.767 86.000,142.672 86.000 C 142.578 86.000,142.500 85.888,142.500 85.750 C 142.500 85.612,142.387 85.500,142.250 85.500 C 142.112 85.500,142.000 85.385,142.000 85.245 C 142.000 85.104,141.887 84.946,141.750 84.894 C 141.612 84.841,141.500 84.693,141.500 84.566 C 141.500 84.438,141.387 84.333,141.250 84.333 C 141.095 84.333,141.000 84.176,141.000 83.918 C 141.000 83.683,140.855 83.412,140.667 83.295 C 140.464 83.168,140.333 82.906,140.333 82.627 C 140.333 82.329,140.245 82.167,140.083 82.167 C 139.898 82.167,139.833 81.972,139.833 81.411 C 139.833 80.894,139.755 80.626,139.583 80.560 C 139.384 80.484,139.333 80.127,139.333 78.816 L 139.333 77.167 155.833 77.167 L 172.333 77.167 172.333 70.667 C 172.333 64.389,172.322 64.155,172.000 63.833 C 171.735 63.568,171.667 63.278,171.667 62.417 C 171.667 61.565,171.613 61.333,171.417 61.333 C 171.231 61.333,171.167 61.138,171.167 60.571 C 171.167 60.116,171.066 59.709,170.917 59.560 C 170.779 59.422,170.667 59.045,170.667 58.722 C 170.667 58.276,170.587 58.115,170.333 58.048 C 170.083 57.983,170.000 57.821,170.000 57.397 C 170.000 57.007,169.923 56.833,169.750 56.833 C 169.583 56.833,169.500 56.667,169.500 56.333 C 169.500 56.000,169.417 55.833,169.250 55.833 C 169.075 55.833,169.000 55.657,169.000 55.250 C 169.000 54.778,168.937 54.667,168.667 54.667 C 168.410 54.667,168.333 54.556,168.333 54.184 C 168.333 53.910,168.226 53.661,168.083 53.606 C 167.946 53.554,167.833 53.396,167.833 53.255 C 167.833 53.115,167.721 53.000,167.583 53.000 C 167.445 53.000,167.333 52.852,167.333 52.670 C 167.333 52.488,167.071 52.069,166.750 51.739 C 166.429 51.408,166.167 51.069,166.167 50.986 C 166.167 50.902,166.054 50.833,165.917 50.833 C 165.779 50.833,165.667 50.721,165.667 50.583 C 165.667 50.446,165.554 50.333,165.417 50.333 C 165.279 50.333,165.167 50.214,165.167 50.068 C 165.167 49.922,165.017 49.763,164.833 49.715 C 164.650 49.667,164.500 49.524,164.500 49.397 C 164.500 49.270,164.387 49.167,164.250 49.167 C 164.112 49.167,164.000 49.054,164.000 48.917 C 164.000 48.779,163.912 48.667,163.805 48.667 C 163.348 48.667,162.342 48.066,162.338 47.792 C 162.335 47.631,162.215 47.500,162.071 47.500 C 161.927 47.500,161.697 47.387,161.560 47.250 C 161.422 47.112,161.165 47.000,160.988 47.000 C 160.811 47.000,160.667 46.887,160.667 46.750 C 160.667 46.588,160.504 46.500,160.207 46.500 C 159.927 46.500,159.665 46.369,159.539 46.167 C 159.418 45.974,159.150 45.833,158.903 45.833 C 158.668 45.833,158.364 45.721,158.226 45.583 C 158.089 45.446,157.727 45.333,157.423 45.333 C 157.084 45.333,156.832 45.236,156.773 45.083 C 156.704 44.903,156.421 44.833,155.755 44.833 C 155.056 44.833,154.753 44.753,154.500 44.500 C 154.180 44.180,153.944 44.167,148.734 44.167 C 143.442 44.167,143.300 44.175,143.215 44.500 M200.382 44.500 C 200.306 44.789,200.154 44.833,199.231 44.833 C 198.396 44.833,198.167 44.887,198.167 45.083 C 198.167 45.272,197.963 45.333,197.333 45.333 C 196.704 45.333,196.500 45.394,196.500 45.583 C 196.500 45.758,196.324 45.833,195.917 45.833 C 195.556 45.833,195.206 45.960,195.000 46.167 C 194.817 46.350,194.479 46.500,194.250 46.500 C 193.991 46.500,193.833 46.594,193.833 46.750 C 193.833 46.887,193.691 47.000,193.518 47.000 C 193.344 47.000,193.159 47.112,193.106 47.250 C 193.054 47.387,192.814 47.500,192.573 47.500 C 192.276 47.500,192.108 47.607,192.048 47.833 C 191.993 48.044,191.821 48.167,191.582 48.167 C 191.373 48.167,191.159 48.279,191.106 48.417 C 191.054 48.554,190.896 48.667,190.755 48.667 C 190.615 48.667,190.500 48.779,190.500 48.917 C 190.500 49.056,190.352 49.167,190.167 49.167 C 189.981 49.167,189.833 49.278,189.833 49.417 C 189.833 49.554,189.721 49.667,189.583 49.667 C 189.444 49.667,189.333 49.815,189.333 50.000 C 189.333 50.185,189.222 50.333,189.083 50.333 C 188.946 50.333,188.833 50.446,188.833 50.583 C 188.833 50.722,188.685 50.833,188.500 50.833 C 188.315 50.833,188.167 50.944,188.167 51.083 C 188.167 51.221,188.054 51.333,187.917 51.333 C 187.778 51.333,187.667 51.481,187.667 51.667 C 187.667 51.852,187.556 52.000,187.417 52.000 C 187.279 52.000,187.167 52.112,187.167 52.250 C 187.167 52.387,187.083 52.500,186.982 52.500 C 186.686 52.500,186.006 53.223,186.003 53.542 C 186.001 53.702,185.926 53.833,185.837 53.833 C 185.747 53.833,185.626 54.021,185.568 54.250 C 185.511 54.479,185.359 54.667,185.232 54.667 C 185.096 54.667,185.000 54.838,185.000 55.082 C 185.000 55.317,184.855 55.588,184.667 55.705 C 184.483 55.820,184.333 56.000,184.333 56.106 C 184.333 56.211,184.221 56.341,184.083 56.394 C 183.937 56.450,183.833 56.699,183.833 56.995 C 183.833 57.333,183.751 57.500,183.583 57.500 C 183.428 57.500,183.333 57.657,183.333 57.917 C 183.333 58.146,183.183 58.483,183.000 58.667 C 182.794 58.873,182.667 59.222,182.667 59.583 C 182.667 59.991,182.591 60.167,182.417 60.167 C 182.244 60.167,182.167 60.341,182.167 60.732 C 182.167 61.081,182.071 61.334,181.917 61.394 C 181.733 61.464,181.667 61.753,181.667 62.475 C 181.667 63.321,181.619 63.474,181.333 63.548 C 181.047 63.623,181.000 63.776,181.000 64.633 C 181.000 65.366,180.934 65.656,180.750 65.727 C 180.549 65.804,180.500 66.181,180.500 67.667 C 180.500 69.152,180.451 69.529,180.250 69.606 C 180.039 69.687,180.000 70.225,180.000 73.023 C 180.000 75.821,180.039 76.359,180.250 76.440 C 180.452 76.517,180.500 76.901,180.500 78.440 C 180.500 79.978,180.548 80.362,180.750 80.440 C 180.934 80.510,181.000 80.800,181.000 81.533 C 181.000 82.391,181.047 82.543,181.333 82.618 C 181.618 82.693,181.667 82.846,181.667 83.668 C 181.667 84.370,181.734 84.657,181.917 84.727 C 182.071 84.786,182.167 85.040,182.167 85.391 C 182.167 85.704,182.279 86.053,182.417 86.167 C 182.554 86.281,182.667 86.589,182.667 86.852 C 182.667 87.150,182.792 87.409,183.000 87.539 C 183.203 87.665,183.333 87.927,183.333 88.207 C 183.333 88.504,183.422 88.667,183.583 88.667 C 183.751 88.667,183.833 88.834,183.833 89.172 C 183.833 89.467,183.937 89.717,184.083 89.773 C 184.221 89.826,184.333 90.055,184.333 90.283 C 184.333 90.558,184.446 90.727,184.667 90.785 C 184.851 90.833,185.000 91.012,185.000 91.186 C 185.000 91.359,185.112 91.500,185.250 91.500 C 185.417 91.500,185.500 91.667,185.500 92.000 C 185.500 92.333,185.583 92.500,185.750 92.500 C 185.887 92.500,186.000 92.609,186.000 92.742 C 186.000 92.875,186.095 93.043,186.212 93.117 C 186.328 93.190,186.514 93.456,186.625 93.708 C 186.736 93.960,186.903 94.167,186.996 94.167 C 187.090 94.167,187.167 94.279,187.167 94.417 C 187.167 94.554,187.279 94.667,187.417 94.667 C 187.556 94.667,187.667 94.815,187.667 95.000 C 187.667 95.183,187.771 95.333,187.899 95.333 C 188.027 95.333,188.174 95.446,188.227 95.583 C 188.280 95.721,188.438 95.833,188.578 95.833 C 188.718 95.833,188.833 95.946,188.833 96.083 C 188.833 96.221,188.946 96.333,189.083 96.333 C 189.221 96.333,189.333 96.417,189.333 96.518 C 189.333 96.774,190.038 97.494,190.292 97.497 C 190.406 97.499,190.500 97.612,190.500 97.750 C 190.500 97.888,190.615 98.000,190.755 98.000 C 190.896 98.000,191.054 98.112,191.106 98.250 C 191.159 98.388,191.373 98.500,191.582 98.500 C 191.821 98.500,191.993 98.623,192.048 98.833 C 192.096 99.017,192.255 99.167,192.401 99.167 C 192.547 99.167,192.667 99.279,192.667 99.417 C 192.667 99.583,192.833 99.667,193.167 99.667 C 193.500 99.667,193.667 99.750,193.667 99.917 C 193.667 100.056,193.815 100.167,194.000 100.167 C 194.183 100.167,194.333 100.245,194.333 100.342 C 194.333 100.438,194.591 100.625,194.905 100.756 C 195.220 100.887,195.524 101.071,195.582 101.164 C 195.639 101.257,195.860 101.333,196.073 101.333 C 196.285 101.333,196.553 101.446,196.667 101.583 C 196.784 101.724,197.147 101.833,197.501 101.833 C 197.988 101.833,198.147 101.908,198.215 102.167 C 198.286 102.439,198.442 102.500,199.068 102.500 C 199.637 102.500,199.833 102.564,199.833 102.750 C 199.833 102.947,200.065 103.000,200.917 103.000 C 201.769 103.000,202.000 103.053,202.000 103.250 C 202.000 103.468,202.778 103.500,208.000 103.500 C 213.222 103.500,214.000 103.468,214.000 103.250 C 214.000 103.052,214.239 103.000,215.155 103.000 C 215.959 103.000,216.385 102.924,216.560 102.750 C 216.702 102.608,217.109 102.500,217.504 102.500 C 218.058 102.500,218.215 102.433,218.285 102.167 C 218.357 101.891,218.512 101.833,219.186 101.833 C 219.798 101.833,220.000 101.771,220.000 101.583 C 220.000 101.409,220.176 101.333,220.583 101.333 C 220.991 101.333,221.167 101.258,221.167 101.083 C 221.167 100.915,221.335 100.833,221.682 100.833 C 222.058 100.833,222.222 100.743,222.285 100.500 C 222.347 100.264,222.512 100.167,222.853 100.167 C 223.169 100.167,223.333 100.081,223.333 99.917 C 223.333 99.752,223.498 99.667,223.816 99.667 C 224.090 99.667,224.339 99.559,224.394 99.417 C 224.446 99.279,224.604 99.167,224.745 99.167 C 224.889 99.167,225.000 99.022,225.000 98.833 C 225.000 98.574,225.111 98.500,225.500 98.500 C 225.833 98.500,226.000 98.417,226.000 98.250 C 226.000 98.112,226.115 98.000,226.255 98.000 C 226.396 98.000,226.554 97.888,226.606 97.750 C 226.659 97.612,226.807 97.500,226.934 97.500 C 227.062 97.500,227.167 97.396,227.167 97.268 C 227.167 97.140,227.279 96.992,227.417 96.940 C 227.554 96.887,227.667 96.729,227.667 96.589 C 227.667 96.444,227.812 96.333,228.000 96.333 C 228.183 96.333,228.333 96.229,228.333 96.101 C 228.333 95.973,228.446 95.826,228.583 95.773 C 228.773 95.700,228.833 95.392,228.833 94.493 C 228.833 93.663,228.759 93.235,228.583 93.060 C 228.446 92.922,228.333 92.639,228.333 92.431 C 228.333 92.222,228.183 91.916,228.000 91.750 C 227.817 91.584,227.667 91.270,227.667 91.052 C 227.667 90.834,227.554 90.613,227.417 90.560 C 227.279 90.508,227.167 90.294,227.167 90.086 C 227.167 89.878,227.054 89.614,226.917 89.500 C 226.779 89.386,226.667 89.189,226.667 89.062 C 226.667 88.936,226.517 88.552,226.333 88.210 C 226.150 87.868,226.000 87.493,226.000 87.377 C 226.000 87.262,225.887 87.167,225.750 87.167 C 225.583 87.167,225.500 86.999,225.500 86.661 C 225.500 86.366,225.396 86.116,225.250 86.060 C 225.107 86.006,225.000 85.757,225.000 85.482 C 225.000 85.165,224.915 85.000,224.750 85.000 C 224.612 85.000,224.500 84.856,224.500 84.680 C 224.500 84.190,224.321 83.833,224.076 83.833 C 223.948 83.833,223.832 83.605,223.802 83.293 C 223.718 82.424,222.333 82.623,222.333 83.504 C 222.333 83.722,222.221 83.833,222.000 83.833 C 221.815 83.833,221.667 83.944,221.667 84.083 C 221.667 84.221,221.554 84.333,221.417 84.333 C 221.279 84.333,221.167 84.446,221.167 84.583 C 221.167 84.721,221.054 84.833,220.917 84.833 C 220.779 84.833,220.665 84.965,220.662 85.125 C 220.658 85.399,219.652 86.000,219.195 86.000 C 219.088 86.000,219.000 86.112,219.000 86.250 C 219.000 86.388,218.887 86.500,218.750 86.500 C 218.612 86.500,218.500 86.612,218.500 86.750 C 218.500 86.918,218.332 87.000,217.984 87.000 C 217.609 87.000,217.445 87.091,217.382 87.333 C 217.320 87.570,217.154 87.667,216.809 87.667 C 216.531 87.667,216.282 87.774,216.227 87.917 C 216.174 88.054,215.928 88.167,215.681 88.167 C 215.433 88.167,215.085 88.277,214.907 88.411 C 214.729 88.546,214.340 88.658,214.042 88.661 C 213.728 88.664,213.360 88.807,213.167 89.000 C 212.903 89.264,212.611 89.333,211.770 89.333 C 211.029 89.333,210.645 89.409,210.500 89.583 C 210.343 89.773,209.918 89.833,208.750 89.833 C 207.582 89.833,207.157 89.773,207.000 89.583 C 206.855 89.409,206.471 89.333,205.730 89.333 C 204.932 89.333,204.667 89.275,204.667 89.101 C 204.667 88.850,204.318 88.667,203.840 88.667 C 203.675 88.667,203.447 88.554,203.333 88.417 C 203.219 88.279,202.983 88.167,202.808 88.167 C 202.633 88.167,202.446 88.054,202.394 87.917 C 202.339 87.774,202.090 87.667,201.816 87.667 C 201.542 87.667,201.332 87.576,201.330 87.458 C 201.327 87.204,200.608 86.500,200.352 86.500 C 200.250 86.500,200.167 86.388,200.167 86.250 C 200.167 86.112,200.054 86.000,199.917 86.000 C 199.779 86.000,199.667 85.888,199.667 85.750 C 199.667 85.612,199.554 85.500,199.417 85.500 C 199.279 85.500,199.167 85.385,199.167 85.245 C 199.167 85.104,199.054 84.946,198.917 84.894 C 198.779 84.841,198.667 84.693,198.667 84.566 C 198.667 84.438,198.517 84.333,198.333 84.333 C 198.073 84.333,198.000 84.222,198.000 83.828 C 198.000 83.533,197.896 83.283,197.750 83.227 C 197.607 83.172,197.500 82.924,197.500 82.649 C 197.500 82.331,197.415 82.167,197.250 82.167 C 197.070 82.167,197.000 81.983,197.000 81.512 C 197.000 81.152,196.895 80.752,196.767 80.624 C 196.609 80.466,196.515 79.871,196.475 78.779 L 196.417 77.166 212.875 77.167 L 229.333 77.167 229.333 70.495 C 229.333 64.718,229.300 63.810,229.083 63.727 C 228.895 63.655,228.833 63.350,228.833 62.482 C 228.833 61.572,228.781 61.333,228.583 61.333 C 228.396 61.333,228.333 61.134,228.333 60.537 C 228.333 59.931,228.253 59.683,228.000 59.500 C 227.768 59.333,227.667 59.069,227.667 58.630 C 227.667 58.181,227.595 58.000,227.417 58.000 C 227.242 58.000,227.167 57.824,227.167 57.417 C 227.167 57.009,227.091 56.833,226.917 56.833 C 226.750 56.833,226.667 56.667,226.667 56.333 C 226.667 56.000,226.583 55.833,226.417 55.833 C 226.248 55.833,226.167 55.665,226.167 55.318 C 226.167 54.942,226.076 54.778,225.833 54.715 C 225.601 54.654,225.500 54.488,225.500 54.165 C 225.500 53.907,225.389 53.660,225.250 53.606 C 225.112 53.554,225.000 53.396,225.000 53.255 C 225.000 53.115,224.893 53.000,224.763 53.000 C 224.633 53.000,224.477 52.775,224.417 52.500 C 224.356 52.225,224.200 52.000,224.070 52.000 C 223.940 52.000,223.833 51.885,223.833 51.745 C 223.833 51.604,223.721 51.446,223.583 51.394 C 223.446 51.341,223.333 51.193,223.333 51.066 C 223.333 50.938,223.221 50.833,223.083 50.833 C 222.946 50.833,222.833 50.721,222.833 50.583 C 222.833 50.446,222.721 50.333,222.583 50.333 C 222.446 50.333,222.333 50.214,222.333 50.068 C 222.333 49.922,222.183 49.763,222.000 49.715 C 221.817 49.667,221.667 49.524,221.667 49.397 C 221.667 49.270,221.554 49.167,221.417 49.167 C 221.279 49.167,221.167 49.054,221.167 48.917 C 221.167 48.779,221.079 48.667,220.971 48.667 C 220.515 48.667,219.508 48.066,219.504 47.792 C 219.502 47.631,219.382 47.500,219.238 47.500 C 219.094 47.500,218.864 47.387,218.726 47.250 C 218.589 47.112,218.332 47.000,218.155 47.000 C 217.978 47.000,217.833 46.887,217.833 46.750 C 217.833 46.594,217.676 46.500,217.417 46.500 C 217.188 46.500,216.850 46.350,216.667 46.167 C 216.483 45.983,216.178 45.833,215.988 45.833 C 215.798 45.833,215.530 45.721,215.393 45.583 C 215.255 45.446,214.894 45.333,214.589 45.333 C 214.251 45.333,213.998 45.236,213.940 45.083 C 213.870 44.903,213.588 44.833,212.922 44.833 C 212.222 44.833,211.920 44.753,211.667 44.500 C 211.347 44.180,211.111 44.167,205.901 44.167 C 200.609 44.167,200.467 44.175,200.382 44.500 M36.000 46.146 C 36.000 46.666,36.090 47.034,36.250 47.167 C 36.387 47.281,36.501 47.609,36.502 47.895 C 36.506 48.668,36.676 49.167,36.936 49.167 C 37.102 49.167,37.167 49.402,37.167 50.000 C 37.167 50.630,37.228 50.833,37.417 50.833 C 37.609 50.833,37.667 51.047,37.667 51.755 C 37.667 52.421,37.736 52.704,37.917 52.773 C 38.078 52.835,38.167 53.093,38.167 53.504 C 38.167 54.301,38.303 54.667,38.601 54.667 C 38.769 54.667,38.833 54.899,38.833 55.500 C 38.833 56.130,38.894 56.333,39.083 56.333 C 39.275 56.333,39.333 56.545,39.333 57.238 C 39.333 57.820,39.423 58.232,39.583 58.393 C 39.726 58.535,39.833 58.942,39.833 59.337 C 39.833 59.891,39.901 60.049,40.167 60.118 C 40.441 60.190,40.500 60.346,40.500 60.999 C 40.500 61.501,40.592 61.869,40.750 62.000 C 40.910 62.133,41.000 62.502,41.000 63.026 C 41.000 63.599,41.075 63.872,41.250 63.940 C 41.419 64.005,41.500 64.270,41.500 64.760 C 41.500 65.195,41.591 65.537,41.727 65.617 C 41.855 65.691,41.992 66.144,42.038 66.648 C 42.094 67.239,42.215 67.597,42.394 67.698 C 42.583 67.803,42.667 68.079,42.667 68.597 C 42.667 69.107,42.746 69.374,42.917 69.440 C 43.092 69.507,43.167 69.780,43.167 70.351 C 43.167 70.932,43.233 71.167,43.396 71.167 C 43.554 71.167,43.649 71.457,43.703 72.104 C 43.756 72.743,43.868 73.090,44.057 73.195 C 44.256 73.307,44.333 73.580,44.333 74.175 C 44.333 74.797,44.395 75.000,44.583 75.000 C 44.771 75.000,44.833 75.201,44.833 75.813 C 44.833 76.332,44.924 76.701,45.083 76.833 C 45.234 76.958,45.333 77.323,45.333 77.750 C 45.333 78.177,45.433 78.542,45.583 78.667 C 45.737 78.794,45.833 79.160,45.833 79.619 C 45.833 80.224,45.896 80.381,46.167 80.452 C 46.448 80.525,46.500 80.679,46.500 81.441 C 46.500 82.090,46.570 82.371,46.750 82.440 C 46.925 82.507,47.000 82.781,47.000 83.356 C 47.000 83.932,47.075 84.206,47.250 84.273 C 47.421 84.339,47.500 84.606,47.500 85.117 C 47.500 85.724,47.562 85.881,47.833 85.952 C 48.118 86.026,48.167 86.179,48.167 87.002 C 48.167 87.704,48.234 87.990,48.417 88.060 C 48.588 88.126,48.667 88.394,48.667 88.917 C 48.667 89.439,48.745 89.707,48.917 89.773 C 49.084 89.837,49.167 90.101,49.167 90.570 C 49.167 91.040,49.276 91.388,49.500 91.628 C 49.733 91.878,49.833 92.216,49.833 92.748 C 49.833 93.272,49.912 93.540,50.083 93.606 C 50.258 93.674,50.333 93.947,50.333 94.518 C 50.333 95.132,50.395 95.333,50.583 95.333 C 50.772 95.333,50.833 95.536,50.833 96.155 C 50.833 96.663,50.929 97.072,51.083 97.226 C 51.221 97.364,51.333 97.738,51.333 98.058 C 51.333 98.803,51.476 99.167,51.768 99.167 C 51.931 99.167,52.000 99.386,52.000 99.908 C 52.000 100.378,52.087 100.699,52.238 100.784 C 52.375 100.860,52.500 101.237,52.530 101.667 L 52.583 102.417 60.417 102.417 L 68.250 102.417 68.301 101.615 C 68.334 101.097,68.467 100.700,68.676 100.490 C 68.910 100.256,69.000 99.936,69.000 99.333 C 69.000 98.704,69.061 98.500,69.250 98.500 C 69.439 98.500,69.500 98.295,69.500 97.655 C 69.500 97.126,69.594 96.716,69.750 96.560 C 69.905 96.405,70.000 95.996,70.000 95.488 C 70.000 94.897,70.065 94.667,70.232 94.667 C 70.547 94.667,70.667 94.295,70.667 93.320 C 70.667 92.702,70.728 92.500,70.917 92.500 C 71.106 92.500,71.167 92.296,71.167 91.667 C 71.167 91.037,71.228 90.833,71.417 90.833 C 71.613 90.833,71.667 90.604,71.667 89.769 C 71.667 88.846,71.711 88.694,72.000 88.618 C 72.266 88.549,72.333 88.391,72.333 87.837 C 72.333 87.442,72.441 87.035,72.583 86.893 C 72.744 86.732,72.833 86.320,72.833 85.738 C 72.833 85.045,72.892 84.833,73.083 84.833 C 73.271 84.833,73.333 84.632,73.333 84.018 C 73.333 83.447,73.408 83.174,73.583 83.106 C 73.767 83.036,73.833 82.747,73.833 82.025 C 73.833 81.179,73.881 81.026,74.167 80.952 C 74.437 80.881,74.500 80.724,74.500 80.119 C 74.500 79.660,74.596 79.294,74.750 79.167 C 74.916 79.029,75.000 78.656,75.000 78.063 C 75.000 77.377,75.059 77.167,75.250 77.167 C 75.439 77.167,75.500 76.963,75.500 76.333 C 75.500 75.722,75.589 75.411,75.833 75.167 C 76.065 74.935,76.167 74.611,76.167 74.101 C 76.167 73.604,76.247 73.338,76.417 73.273 C 76.592 73.206,76.667 72.932,76.667 72.359 C 76.667 71.835,76.757 71.466,76.917 71.333 C 77.075 71.202,77.167 70.834,77.167 70.331 C 77.167 69.792,77.244 69.506,77.407 69.443 C 77.557 69.386,77.671 69.048,77.710 68.551 C 77.768 67.819,77.776 67.840,77.803 68.797 C 77.825 69.553,77.903 69.870,78.083 69.940 C 78.257 70.007,78.333 70.278,78.333 70.833 C 78.333 71.389,78.409 71.660,78.583 71.727 C 78.765 71.796,78.833 72.081,78.833 72.760 C 78.833 73.558,78.883 73.711,79.167 73.785 C 79.453 73.860,79.500 74.012,79.500 74.858 C 79.500 75.581,79.567 75.869,79.750 75.940 C 79.921 76.005,80.000 76.272,80.000 76.780 C 80.000 77.219,80.102 77.626,80.250 77.774 C 80.411 77.935,80.500 78.347,80.500 78.929 C 80.500 79.622,80.558 79.833,80.750 79.833 C 80.933 79.833,81.001 80.024,81.002 80.542 C 81.005 81.491,81.157 82.000,81.436 82.000 C 81.602 82.000,81.667 82.236,81.667 82.839 C 81.667 83.430,81.740 83.705,81.917 83.773 C 82.099 83.843,82.167 84.130,82.167 84.833 C 82.167 85.496,82.238 85.825,82.395 85.885 C 82.537 85.940,82.653 86.332,82.702 86.923 C 82.756 87.575,82.868 87.923,83.057 88.029 C 83.256 88.140,83.333 88.413,83.333 89.008 C 83.333 89.631,83.395 89.833,83.583 89.833 C 83.778 89.833,83.833 90.056,83.833 90.839 C 83.833 91.578,83.899 91.869,84.083 91.940 C 84.258 92.007,84.333 92.280,84.333 92.851 C 84.333 93.444,84.424 93.757,84.667 94.000 C 84.901 94.235,85.000 94.556,85.000 95.083 C 85.000 95.639,85.065 95.833,85.250 95.833 C 85.447 95.833,85.500 96.065,85.500 96.917 C 85.500 97.769,85.553 98.000,85.750 98.000 C 85.938 98.000,86.000 98.200,86.000 98.801 C 86.000 99.248,86.108 99.746,86.245 99.926 C 86.379 100.104,86.492 100.576,86.495 100.974 C 86.499 101.555,86.566 101.715,86.833 101.785 C 87.018 101.833,87.167 102.012,87.167 102.186 C 87.167 102.489,87.436 102.500,94.833 102.500 C 102.244 102.500,102.500 102.489,102.500 102.184 C 102.500 102.011,102.612 101.826,102.750 101.773 C 102.920 101.708,103.000 101.442,103.000 100.942 C 103.000 100.492,103.097 100.127,103.250 100.000 C 103.416 99.863,103.500 99.490,103.500 98.896 C 103.500 98.111,103.541 98.000,103.833 98.000 C 104.122 98.000,104.167 97.889,104.167 97.167 C 104.167 96.537,104.228 96.333,104.417 96.333 C 104.605 96.333,104.667 96.132,104.667 95.518 C 104.667 94.947,104.742 94.674,104.917 94.606 C 105.093 94.539,105.167 94.264,105.167 93.673 C 105.167 93.017,105.239 92.791,105.500 92.628 C 105.757 92.467,105.833 92.239,105.833 91.627 C 105.833 91.033,105.896 90.833,106.083 90.833 C 106.272 90.833,106.333 90.630,106.333 90.000 C 106.333 89.370,106.394 89.167,106.583 89.167 C 106.769 89.167,106.833 88.972,106.833 88.417 C 106.833 87.889,106.932 87.568,107.167 87.333 C 107.411 87.089,107.500 86.778,107.500 86.167 C 107.500 85.537,107.561 85.333,107.750 85.333 C 107.934 85.333,108.000 85.141,108.000 84.601 C 108.000 84.104,108.080 83.838,108.250 83.773 C 108.426 83.705,108.500 83.430,108.500 82.839 C 108.500 82.204,108.561 82.000,108.750 82.000 C 108.935 82.000,109.000 81.806,109.000 81.250 C 109.000 80.722,109.099 80.401,109.333 80.167 C 109.565 79.935,109.667 79.611,109.667 79.101 C 109.667 78.604,109.747 78.338,109.917 78.273 C 110.088 78.207,110.167 77.939,110.167 77.417 C 110.167 76.894,110.245 76.626,110.417 76.560 C 110.582 76.497,110.667 76.236,110.667 75.792 C 110.667 75.363,110.765 75.048,110.938 74.921 C 111.104 74.800,111.242 74.388,111.293 73.864 C 111.338 73.392,111.478 72.921,111.604 72.816 C 111.735 72.708,111.833 72.312,111.833 71.896 C 111.833 71.359,111.899 71.167,112.083 71.167 C 112.271 71.167,112.333 70.965,112.333 70.351 C 112.333 69.780,112.408 69.507,112.583 69.440 C 112.748 69.376,112.833 69.115,112.833 68.672 C 112.833 68.222,112.944 67.890,113.167 67.667 C 113.402 67.431,113.500 67.111,113.500 66.578 C 113.500 66.061,113.579 65.793,113.750 65.727 C 113.925 65.660,114.000 65.387,114.000 64.816 C 114.000 64.202,114.062 64.000,114.250 64.000 C 114.439 64.000,114.500 63.796,114.500 63.167 C 114.500 62.568,114.565 62.333,114.731 62.333 C 114.981 62.333,115.161 61.840,115.164 61.145 C 115.166 60.905,115.279 60.614,115.417 60.500 C 115.582 60.363,115.667 59.990,115.667 59.396 C 115.667 58.711,115.725 58.500,115.917 58.500 C 116.106 58.500,116.167 58.296,116.167 57.667 C 116.167 57.065,116.231 56.833,116.399 56.833 C 116.681 56.833,116.833 56.474,116.833 55.808 C 116.833 55.534,116.946 55.197,117.083 55.060 C 117.222 54.921,117.333 54.513,117.333 54.143 C 117.333 53.772,117.444 53.365,117.583 53.226 C 117.738 53.072,117.833 52.663,117.833 52.155 C 117.833 51.536,117.895 51.333,118.083 51.333 C 118.271 51.333,118.333 51.132,118.333 50.519 C 118.333 49.846,118.391 49.691,118.667 49.618 C 118.938 49.548,119.000 49.391,119.000 48.783 C 119.000 48.272,119.079 48.005,119.250 47.940 C 119.424 47.873,119.500 47.601,119.500 47.039 C 119.500 46.596,119.570 46.162,119.655 46.075 C 119.752 45.977,119.729 45.805,119.594 45.623 C 119.392 45.349,118.842 45.333,111.230 45.373 L 103.083 45.417 103.030 46.167 C 103.000 46.596,102.875 46.973,102.738 47.050 C 102.574 47.142,102.500 47.486,102.500 48.157 C 102.500 48.869,102.433 49.157,102.250 49.227 C 102.068 49.297,102.000 49.584,102.000 50.288 C 102.000 51.073,101.938 51.292,101.667 51.461 C 101.400 51.628,101.333 51.850,101.333 52.567 C 101.333 53.211,101.263 53.491,101.083 53.560 C 100.896 53.632,100.833 53.931,100.833 54.745 C 100.833 55.601,100.780 55.833,100.583 55.833 C 100.392 55.833,100.333 56.044,100.333 56.730 C 100.333 57.323,100.249 57.696,100.083 57.833 C 99.920 57.968,99.833 58.339,99.833 58.897 C 99.833 59.573,99.763 59.797,99.500 59.961 C 99.238 60.125,99.167 60.350,99.167 61.013 C 99.167 61.541,99.073 61.951,98.917 62.107 C 98.756 62.268,98.667 62.680,98.667 63.262 C 98.667 63.955,98.608 64.167,98.417 64.167 C 98.222 64.167,98.167 64.388,98.167 65.158 C 98.167 65.913,98.100 66.187,97.887 66.307 C 97.688 66.418,97.586 66.756,97.534 67.482 C 97.482 68.201,97.392 68.500,97.230 68.500 C 97.058 68.500,97.000 68.773,97.000 69.583 C 97.000 70.435,96.947 70.667,96.750 70.667 C 96.553 70.667,96.500 70.898,96.500 71.750 C 96.500 72.565,96.442 72.833,96.268 72.833 C 95.955 72.833,95.833 73.204,95.833 74.162 C 95.833 74.721,95.758 74.993,95.583 75.060 C 95.403 75.130,95.333 75.412,95.333 76.078 C 95.333 77.233,94.942 77.775,94.458 77.292 C 94.260 77.094,94.167 76.739,94.167 76.187 C 94.167 75.668,94.076 75.299,93.917 75.167 C 93.764 75.040,93.667 74.674,93.667 74.224 C 93.667 73.725,93.587 73.459,93.417 73.394 C 93.233 73.323,93.167 73.033,93.167 72.300 C 93.167 71.442,93.120 71.290,92.833 71.215 C 92.547 71.140,92.500 70.988,92.500 70.142 C 92.500 69.419,92.433 69.131,92.250 69.060 C 92.075 68.993,92.000 68.720,92.000 68.149 C 92.000 67.535,91.938 67.333,91.750 67.333 C 91.555 67.333,91.500 67.111,91.500 66.328 C 91.500 65.588,91.434 65.298,91.250 65.227 C 91.084 65.163,90.999 64.899,90.998 64.441 C 90.995 63.508,90.842 63.000,90.564 63.000 C 90.398 63.000,90.333 62.765,90.333 62.167 C 90.333 61.537,90.272 61.333,90.083 61.333 C 89.887 61.333,89.833 61.104,89.833 60.268 C 89.833 59.474,89.769 59.178,89.583 59.106 C 89.407 59.039,89.333 58.763,89.333 58.170 C 89.333 57.536,89.252 57.260,89.000 57.045 C 88.755 56.835,88.667 56.553,88.667 55.981 C 88.667 55.443,88.590 55.173,88.417 55.106 C 88.236 55.037,88.167 54.754,88.167 54.083 C 88.167 53.413,88.097 53.130,87.917 53.060 C 87.738 52.992,87.667 52.712,87.667 52.077 C 87.667 51.511,87.576 51.100,87.417 50.940 C 87.279 50.803,87.167 50.399,87.167 50.043 C 87.167 49.627,87.048 49.269,86.833 49.038 C 86.591 48.779,86.500 48.450,86.500 47.840 C 86.500 47.204,86.439 47.000,86.250 47.000 C 86.061 47.000,86.000 46.796,86.000 46.165 L 86.000 45.330 77.542 45.373 L 69.083 45.417 69.034 46.458 C 68.997 47.235,68.923 47.500,68.742 47.500 C 68.563 47.500,68.500 47.716,68.500 48.333 C 68.500 48.944,68.411 49.256,68.167 49.500 C 67.922 49.744,67.833 50.056,67.833 50.667 C 67.833 51.296,67.772 51.500,67.583 51.500 C 67.389 51.500,67.333 51.720,67.333 52.482 C 67.333 53.201,67.266 53.490,67.083 53.560 C 66.903 53.630,66.833 53.912,66.833 54.577 C 66.833 55.317,66.768 55.538,66.500 55.705 C 66.244 55.865,66.167 56.094,66.167 56.693 C 66.167 57.141,66.084 57.500,65.971 57.537 C 65.862 57.574,65.743 58.055,65.701 58.635 C 65.648 59.365,65.559 59.667,65.397 59.667 C 65.225 59.667,65.167 59.940,65.167 60.750 C 65.167 61.602,65.113 61.833,64.917 61.833 C 64.726 61.833,64.667 62.042,64.667 62.713 C 64.667 63.402,64.594 63.645,64.333 63.833 C 64.082 64.015,64.000 64.265,64.000 64.852 C 64.000 65.391,63.923 65.661,63.750 65.727 C 63.567 65.797,63.500 66.086,63.500 66.810 C 63.500 67.534,63.433 67.823,63.250 67.894 C 63.067 67.964,63.000 68.253,63.000 68.975 C 63.000 69.821,62.953 69.974,62.667 70.048 C 62.393 70.120,62.333 70.276,62.333 70.913 C 62.333 71.382,62.234 71.790,62.083 71.940 C 61.923 72.101,61.833 72.513,61.833 73.095 C 61.833 73.788,61.775 74.000,61.583 74.000 C 61.387 74.000,61.333 74.229,61.333 75.064 C 61.333 75.978,61.288 76.140,61.009 76.213 C 60.743 76.282,60.675 76.470,60.634 77.261 C 60.562 78.635,60.167 78.704,60.167 77.342 C 60.167 76.590,60.101 76.298,59.917 76.227 C 59.742 76.160,59.667 75.887,59.667 75.316 C 59.667 74.722,59.576 74.409,59.333 74.167 C 59.103 73.936,59.000 73.611,59.000 73.115 C 59.000 72.720,58.890 72.251,58.755 72.074 C 58.621 71.896,58.508 71.391,58.505 70.953 C 58.502 70.402,58.423 70.127,58.250 70.060 C 58.067 69.990,58.000 69.701,58.000 68.977 C 58.000 68.253,57.933 67.964,57.750 67.894 C 57.576 67.827,57.500 67.555,57.500 66.996 C 57.500 66.038,57.379 65.667,57.066 65.667 C 56.891 65.667,56.833 65.398,56.833 64.583 C 56.833 63.731,56.780 63.500,56.583 63.500 C 56.389 63.500,56.333 63.277,56.333 62.495 C 56.333 61.755,56.267 61.464,56.083 61.394 C 55.917 61.330,55.833 61.066,55.831 60.607 C 55.828 59.675,55.675 59.167,55.397 59.167 C 55.230 59.167,55.167 58.922,55.167 58.270 C 55.167 57.677,55.082 57.304,54.917 57.167 C 54.759 57.035,54.667 56.668,54.667 56.167 C 54.667 55.666,54.575 55.298,54.417 55.167 C 54.250 55.029,54.167 54.655,54.167 54.047 C 54.167 53.276,54.115 53.122,53.833 53.048 C 53.544 52.973,53.500 52.821,53.500 51.897 C 53.500 51.063,53.446 50.833,53.250 50.833 C 53.053 50.833,53.000 50.602,53.000 49.750 C 53.000 48.898,52.947 48.667,52.750 48.667 C 52.555 48.667,52.500 48.444,52.500 47.661 C 52.500 46.922,52.434 46.631,52.250 46.560 C 52.096 46.501,52.000 46.248,52.000 45.899 L 52.000 45.333 44.000 45.333 L 36.000 45.333 36.000 46.146 M152.000 57.566 C 152.000 57.817,152.349 58.000,152.829 58.000 C 152.995 58.000,153.174 58.112,153.227 58.250 C 153.280 58.387,153.513 58.500,153.745 58.500 C 154.009 58.500,154.167 58.594,154.167 58.750 C 154.167 58.887,154.239 59.000,154.326 59.000 C 154.558 59.000,155.833 60.247,155.833 60.474 C 155.833 60.580,155.946 60.667,156.083 60.667 C 156.221 60.667,156.333 60.779,156.333 60.917 C 156.333 61.054,156.446 61.167,156.583 61.167 C 156.721 61.167,156.833 61.311,156.833 61.486 C 156.833 61.983,157.013 62.333,157.268 62.333 C 157.422 62.333,157.500 62.529,157.500 62.917 C 157.500 63.324,157.575 63.500,157.750 63.500 C 157.947 63.500,158.000 63.731,158.000 64.583 L 158.000 65.667 148.917 65.667 L 139.833 65.667 139.833 64.578 C 139.833 63.764,139.896 63.465,140.083 63.394 C 140.226 63.339,140.333 63.090,140.333 62.816 C 140.333 62.505,140.419 62.333,140.576 62.333 C 140.721 62.333,140.862 62.099,140.928 61.750 C 140.990 61.416,141.136 61.167,141.269 61.167 C 141.396 61.167,141.500 61.054,141.500 60.917 C 141.500 60.779,141.612 60.667,141.750 60.667 C 141.887 60.667,142.000 60.554,142.000 60.417 C 142.000 60.279,142.112 60.167,142.250 60.167 C 142.387 60.167,142.500 60.063,142.500 59.936 C 142.500 59.809,142.650 59.666,142.833 59.618 C 143.017 59.570,143.167 59.412,143.167 59.266 C 143.167 59.120,143.279 59.000,143.417 59.000 C 143.554 59.000,143.667 58.887,143.667 58.750 C 143.667 58.583,143.834 58.500,144.172 58.500 C 144.467 58.500,144.717 58.396,144.773 58.250 C 144.828 58.107,145.076 58.000,145.351 58.000 C 145.616 58.000,145.965 57.856,146.125 57.681 C 146.508 57.261,152.000 57.154,152.000 57.566 M209.215 57.667 C 209.272 57.887,209.442 58.000,209.714 58.000 C 209.941 58.000,210.219 58.112,210.333 58.250 C 210.447 58.387,210.719 58.500,210.937 58.500 C 211.178 58.500,211.333 58.598,211.333 58.750 C 211.333 58.887,211.446 59.000,211.583 59.000 C 211.721 59.000,211.833 59.112,211.833 59.250 C 211.833 59.387,211.927 59.501,212.042 59.503 C 212.296 59.506,213.000 60.226,213.000 60.482 C 213.000 60.583,213.112 60.667,213.250 60.667 C 213.387 60.667,213.500 60.779,213.500 60.917 C 213.500 61.054,213.612 61.167,213.750 61.167 C 213.918 61.167,214.000 61.335,214.000 61.682 C 214.000 62.058,214.091 62.222,214.333 62.285 C 214.584 62.351,214.667 62.512,214.667 62.936 C 214.667 63.326,214.744 63.500,214.917 63.500 C 215.113 63.500,215.167 63.731,215.167 64.583 L 215.167 65.667 206.083 65.667 L 197.000 65.667 197.000 64.578 C 197.000 63.764,197.063 63.465,197.250 63.394 C 197.393 63.339,197.500 63.090,197.500 62.816 C 197.500 62.498,197.585 62.333,197.750 62.333 C 197.925 62.333,198.000 62.157,198.000 61.750 C 198.000 61.278,198.063 61.167,198.333 61.167 C 198.519 61.167,198.667 61.056,198.667 60.917 C 198.667 60.779,198.779 60.667,198.917 60.667 C 199.054 60.667,199.167 60.554,199.167 60.417 C 199.167 60.279,199.279 60.167,199.417 60.167 C 199.554 60.167,199.667 60.063,199.667 59.936 C 199.667 59.809,199.817 59.666,200.000 59.618 C 200.183 59.570,200.333 59.412,200.333 59.266 C 200.333 59.120,200.446 59.000,200.583 59.000 C 200.721 59.000,200.833 58.887,200.833 58.750 C 200.833 58.583,201.001 58.500,201.339 58.500 C 201.634 58.500,201.884 58.396,201.940 58.250 C 201.994 58.107,202.243 58.000,202.518 58.000 C 202.783 58.000,203.131 57.856,203.292 57.681 C 203.751 57.178,209.084 57.165,209.215 57.667 " stroke="none" fill="#000000" fill-rule="evenodd"></path><path id="path1" d="M332.708 74.125 L 332.750 103.417 333.292 103.469 C 333.797 103.518,333.833 103.487,333.833 103.005 C 333.833 102.701,333.936 102.450,334.083 102.394 C 334.223 102.340,334.333 102.092,334.333 101.833 C 334.333 101.574,334.444 101.327,334.583 101.273 C 334.725 101.219,334.833 100.970,334.833 100.698 C 334.833 100.430,334.981 100.085,335.167 99.917 C 335.373 99.730,335.500 99.403,335.500 99.058 C 335.500 98.673,335.578 98.500,335.750 98.500 C 335.915 98.500,336.000 98.335,336.000 98.018 C 336.000 97.743,336.107 97.494,336.250 97.440 C 336.396 97.384,336.500 97.134,336.500 96.839 C 336.500 96.513,336.584 96.333,336.737 96.333 C 336.869 96.333,337.026 96.093,337.091 95.792 C 337.156 95.494,337.312 95.102,337.438 94.921 C 337.564 94.740,337.667 94.384,337.667 94.130 C 337.667 93.829,337.754 93.667,337.917 93.667 C 338.091 93.667,338.167 93.491,338.167 93.083 C 338.167 92.676,338.242 92.500,338.417 92.500 C 338.583 92.500,338.667 92.334,338.667 92.006 C 338.667 91.682,338.782 91.450,339.000 91.333 C 339.199 91.227,339.333 90.984,339.333 90.732 C 339.333 90.500,339.446 90.197,339.583 90.060 C 339.721 89.922,339.833 89.552,339.833 89.238 C 339.833 88.841,339.910 88.667,340.083 88.667 C 340.245 88.667,340.333 88.504,340.333 88.207 C 340.333 87.927,340.464 87.665,340.667 87.539 C 340.850 87.424,341.000 87.152,341.000 86.933 C 341.000 86.715,341.112 86.492,341.250 86.440 C 341.387 86.387,341.500 86.149,341.500 85.910 C 341.500 85.671,341.613 85.364,341.750 85.226 C 341.887 85.089,342.000 84.719,342.000 84.405 C 342.000 84.008,342.076 83.833,342.250 83.833 C 342.423 83.833,342.500 83.660,342.500 83.269 C 342.500 82.846,342.583 82.684,342.833 82.618 C 343.076 82.555,343.167 82.391,343.167 82.016 C 343.167 81.668,343.248 81.500,343.417 81.500 C 343.584 81.500,343.667 81.333,343.667 80.995 C 343.667 80.699,343.771 80.450,343.917 80.394 C 344.085 80.329,344.167 80.065,344.167 79.585 C 344.167 79.012,344.232 78.855,344.500 78.785 C 344.743 78.722,344.833 78.558,344.833 78.182 C 344.833 77.835,344.915 77.667,345.083 77.667 C 345.251 77.667,345.333 77.499,345.333 77.161 C 345.333 76.866,345.437 76.616,345.583 76.560 C 345.721 76.508,345.833 76.285,345.833 76.066 C 345.833 75.846,345.983 75.517,346.167 75.333 C 346.350 75.150,346.500 74.813,346.500 74.583 C 346.500 74.324,346.594 74.167,346.750 74.167 C 346.923 74.167,347.000 74.341,347.000 74.732 C 347.000 75.081,347.096 75.334,347.250 75.394 C 347.387 75.446,347.500 75.679,347.500 75.910 C 347.500 76.150,347.643 76.420,347.833 76.539 C 348.036 76.665,348.167 76.927,348.167 77.207 C 348.167 77.504,348.255 77.667,348.417 77.667 C 348.590 77.667,348.667 77.841,348.667 78.232 C 348.667 78.581,348.762 78.834,348.917 78.894 C 349.063 78.950,349.167 79.200,349.167 79.496 C 349.167 79.797,349.302 80.119,349.500 80.289 C 349.685 80.447,349.833 80.780,349.833 81.037 C 349.833 81.337,349.921 81.500,350.083 81.500 C 350.258 81.500,350.333 81.676,350.333 82.083 C 350.333 82.491,350.409 82.667,350.583 82.667 C 350.751 82.667,350.833 82.834,350.833 83.172 C 350.833 83.467,350.937 83.717,351.083 83.773 C 351.221 83.826,351.334 84.030,351.336 84.226 C 351.340 84.846,351.531 85.333,351.769 85.333 C 351.915 85.333,352.000 85.520,352.000 85.839 C 352.000 86.134,352.104 86.384,352.250 86.440 C 352.393 86.495,352.500 86.744,352.500 87.023 C 352.500 87.303,352.607 87.551,352.750 87.606 C 352.893 87.661,353.000 87.910,353.000 88.184 C 353.000 88.556,353.077 88.667,353.333 88.667 C 353.612 88.667,353.667 88.778,353.667 89.339 C 353.667 89.782,353.752 90.043,353.917 90.106 C 354.069 90.165,354.167 90.417,354.167 90.750 C 354.167 91.083,354.265 91.335,354.417 91.394 C 354.563 91.450,354.667 91.699,354.667 91.995 C 354.667 92.389,354.740 92.500,355.000 92.500 C 355.270 92.500,355.333 92.611,355.333 93.083 C 355.333 93.491,355.409 93.667,355.583 93.667 C 355.764 93.667,355.833 93.852,355.833 94.339 C 355.833 94.782,355.918 95.043,356.083 95.106 C 356.227 95.161,356.333 95.410,356.333 95.690 C 356.333 95.969,356.440 96.218,356.583 96.273 C 356.721 96.326,356.833 96.505,356.833 96.671 C 356.833 97.151,357.016 97.500,357.268 97.500 C 357.415 97.500,357.500 97.684,357.500 98.000 C 357.500 98.333,357.583 98.500,357.750 98.500 C 357.921 98.500,358.000 98.672,358.000 99.046 C 358.000 99.347,358.103 99.740,358.229 99.921 C 358.354 100.102,358.510 100.494,358.575 100.792 C 358.641 101.093,358.798 101.333,358.930 101.333 C 359.082 101.333,359.167 101.513,359.167 101.839 C 359.167 102.134,359.271 102.384,359.417 102.440 C 359.559 102.494,359.667 102.743,359.667 103.018 C 359.667 103.442,359.726 103.500,360.167 103.500 L 360.667 103.500 360.667 74.167 L 360.667 44.833 346.666 44.833 L 332.666 44.833 332.708 74.125 " stroke="none" fill="#ff0000" fill-rule="evenodd"></path></g></svg>